<svg width="1000" height="1000" viewBox="0 0 1000 1000" fill="none" xmlns="http://www.w3.org/2000/svg">
<path d="M643.764 243.063C643.764 178.085 696.39 125.425 761.367 125.425C826.311 125.425 878.971 178.085 878.971 243.063C878.971 308.041 826.311 360.667 761.367 360.667C696.39 360.667 643.764 308.041 643.764 243.063Z" fill="white"/>
<path d="M501.734 207.622C339.808 207.622 208.676 338.858 208.676 500.715C208.676 662.606 339.808 793.807 501.734 793.807C663.59 793.807 794.826 662.606 794.826 500.715V497.117L797.041 499.435C797.041 499.504 961.942 499.608 961.942 499.677C961.942 754.537 755.348 961.131 500.488 961.131C245.594 961.131 39 754.537 39 499.677C39 245.682 244.244 39.5726 497.963 38.1886L501.734 207.622Z" fill="white"/>
<path d="M300.159 501.073C300.159 388.556 391.398 297.317 503.916 297.317C616.399 297.317 707.638 388.556 707.638 501.073C707.638 613.626 616.399 704.83 503.916 704.83C391.398 704.83 300.159 613.626 300.159 501.073Z" fill="white"/>
<path d="M643.764 243.063C643.764 178.085 696.39 125.425 761.367 125.425C826.311 125.425 878.971 178.085 878.971 243.063C878.971 308.041 826.311 360.667 761.367 360.667C696.39 360.667 643.764 308.041 643.764 243.063Z" fill="white"/>
<path d="M501.734 207.622C339.808 207.622 208.676 338.858 208.676 500.715C208.676 662.606 339.808 793.807 501.734 793.807C663.59 793.807 794.826 662.606 794.826 500.715V497.117L797.041 499.435C797.041 499.504 961.942 499.608 961.942 499.677C961.942 754.537 755.348 961.131 500.488 961.131C245.594 961.131 39 754.537 39 499.677C39 245.682 244.244 39.5726 497.963 38.1886L501.734 207.622Z" fill="white"/>
<path d="M300.159 501.073C300.159 388.556 391.398 297.317 503.916 297.317C616.399 297.317 707.638 388.556 707.638 501.073C707.638 613.626 616.399 704.83 503.916 704.83C391.398 704.83 300.159 613.626 300.159 501.073Z" fill="white"/>
</svg>
